# xmcd
# 
# Track frame offsets:
#     150
#     18404
#     41633
#     62807
#     78339
#     103454
#     119978
#     142623
#     169049
#     192189
#     214912
#     244028
# 
# Disc length: 3739
# 
# Revision: 2
# Processed by: cddbd v1.5.2PL0 Copyright (c) Steve Scherf et al.
# Submitted via: fre:ac v1.0.17
# 
DISCID=ab0e990c
DTITLE=Various Artist - 夜間飛行　Night Flight
DYEAR=2005
DGENRE=Jazz
TTITLE0=寺井尚子 - BIRDLAND
TTITLE1=寺井尚子 - A NIGHT IN GALICIA
TTITLE2=寺井尚子 - POMPOM BLANC PARFAIT
TTITLE3=寺井尚子 - LA CUMPARSITA
TTITLE4=寺井尚子 - AND HERE YOU ARE
TTITLE5=寺井尚子 - NIGHT FLIGHT
TTITLE6=寺井尚子 - LAZY ANGEL
TTITLE7=寺井尚子 - JOY OF SINGING
TTITLE8=寺井尚子 - IN MY CHILDHOOD
TTITLE9=寺井尚子 - SONG FROM THE OLD COUNTRY
TTITLE10=寺井尚子 - FROM NAUGHT
TTITLE11=寺井尚子 - LA CUMPARSITA -CD EXTRA-
EXTD=YEAR: 2005
EXTT0=
EXTT1=
EXTT2=
EXTT3=
EXTT4=
EXTT5=
EXTT6=
EXTT7=
EXTT8=
EXTT9=
EXTT10=
EXTT11=
PLAYORDER=
